<svg xmlns="http://www.w3.org/2000/svg" viewBox="0 0 480 360" role="img" aria-labelledby="title">
  <title>Electric Vehicle Analytics</title>
  <defs>
    <linearGradient id="gradient" x1="0%" y1="0%" x2="100%" y2="100%">
      <stop offset="0%" stop-color="#4f9aff" />
      <stop offset="100%" stop-color="#6be5b5" />
    </linearGradient>
  </defs>
  <rect width="480" height="360" rx="26" fill="url(#gradient)" opacity="0.15" />
  <g transform="translate(40 40)">
    <rect x="0" y="0" width="280" height="180" rx="18" fill="#ffffff" opacity="0.9" />
    <polyline points="30,130 90,80 150,110 210,60 260,90" fill="none" stroke="#3180ff" stroke-width="12" stroke-linecap="round" stroke-linejoin="round" />
    <circle cx="90" cy="80" r="10" fill="#3180ff" />
    <circle cx="210" cy="60" r="10" fill="#3180ff" />
    <text x="30" y="160" font-family="'Segoe UI',sans-serif" font-size="18" fill="#1b3b6f">Vehicle demand</text>
  </g>
  <g transform="translate(340 60)">
    <rect x="0" y="0" width="100" height="120" rx="16" fill="#ffffff" opacity="0.9" />
    <rect x="26" y="80" width="24" height="30" rx="6" fill="#32d296" />
    <rect x="58" y="60" width="24" height="50" rx="6" fill="#f7931a" />
    <rect x="26" y="26" width="24" height="30" rx="6" fill="#3180ff" />
  </g>
  <g transform="translate(60 240)">
    <rect x="0" y="0" width="360" height="80" rx="20" fill="#ffffff" opacity="0.9" />
    <text x="26" y="34" font-family="'Segoe UI',sans-serif" font-size="20" fill="#1b3b6f">EV Dealer Performance</text>
    <text x="26" y="58" font-family="'Segoe UI',sans-serif" font-size="15" fill="#5872a0">Live telemetry for regional allocations</text>
    <path d="M270 60 l18-44 18 28 14-22 16 38" stroke="#32d296" stroke-width="8" stroke-linecap="round" stroke-linejoin="round" fill="none" />
  </g>
  <path d="M180 280 h80" stroke="#32d296" stroke-width="16" stroke-linecap="round" />
  <circle cx="240" cy="280" r="26" fill="#ffffff" stroke="#32d296" stroke-width="8" />
  <path d="M236 270 l8 10 -8 10" stroke="#32d296" stroke-width="8" stroke-linecap="round" stroke-linejoin="round" fill="none" />
</svg>
